<?xml version="1.0" encoding="UTF-8" standalone="no"?>
<!-- Created with Inkscape (http://www.inkscape.org/) -->

<svg
   xmlns:dc="http://purl.org/dc/elements/1.1/"
   xmlns:cc="http://creativecommons.org/ns#"
   xmlns:rdf="http://www.w3.org/1999/02/22-rdf-syntax-ns#"
   xmlns:svg="http://www.w3.org/2000/svg"
   xmlns="http://www.w3.org/2000/svg"
   xmlns:xlink="http://www.w3.org/1999/xlink"
   xmlns:sodipodi="http://sodipodi.sourceforge.net/DTD/sodipodi-0.dtd"
   xmlns:inkscape="http://www.inkscape.org/namespaces/inkscape"
   id="svg2985"
   version="1.1"
   inkscape:version="0.48.4 r9939"
   width="6333"
   height="632"
   sodipodi:docname="Background.bmp">
  <metadata
     id="metadata2991">
    <rdf:RDF>
      <cc:Work
         rdf:about="">
        <dc:format>image/svg+xml</dc:format>
        <dc:type
           rdf:resource="http://purl.org/dc/dcmitype/StillImage" />
        <dc:title></dc:title>
      </cc:Work>
    </rdf:RDF>
  </metadata>
  <defs
     id="defs2989" />
  <sodipodi:namedview
     pagecolor="#ffffff"
     bordercolor="#666666"
     borderopacity="1"
     objecttolerance="10"
     gridtolerance="10"
     guidetolerance="10"
     inkscape:pageopacity="0"
     inkscape:pageshadow="2"
     inkscape:window-width="1920"
     inkscape:window-height="1018"
     id="namedview2987"
     showgrid="false"
     inkscape:zoom="0.047844623"
     inkscape:cx="3166.5"
     inkscape:cy="316"
     inkscape:window-x="-8"
     inkscape:window-y="-8"
     inkscape:window-maximized="1"
     inkscape:current-layer="svg2985" />
  <image
     width="6333"
     height="632"
     xlink:href="file:///C:/Users/saartje/Desktop/Digital%20Arts%20&amp;%20Entertainment/Charlie%20the%20Duck/CODE/CharlieTheDuck/resources/Background.bmp"
     id="image2993"
     x="0"
     y="0" />
  <path
     style="fill:#000000"
     d="m 636,632 -636,0 0,-92 0,-92 241,0 241,0 0,-32 0,-32 55,0 55,0 0,64 0,64 302.5,0 302.5,0 0,-16 0,-16 19,0 19,0 0,16 0,16 18.5,0 18.5,0 0,60 0,60 -636,0 z m 1379,0 -614,0 0,-60.5 0,-60.5 139.5,0 139.5,0 0,-47.5 0,-47.5 96,0 96,0 0,47.5 0,47.5 378.5,0 378.5,0 0,60.5 0,60.5 -614,0 z m 1437,0 -614,0 0,-60.5 0,-60.5 78.5,0 78.5,0 0,-16 0,-16 20,0 20,0 0,15.5 0,15.5 -2,0 -2,0 0,16.5 0,16.5 243.5,0 243.5,0 0,-32 0,-32 60.5,0 60.5,0 0,-32 0,-32 135,0 135,0 0,48.5 0,48.5 78.5,0 78.5,0 0,60 0,60 -614,0 z m 798,0 -56,0 0,-60.5 0,-60.5 56,0 56,0 0,60.5 0,60.5 -56,0 z m 1131.5,0 -951.5,0 0,-60 0,-60 240.5,0 240.5,0 0,-32.5 0,-32.5 139,0 139,0 0,-48 0,-48 138,0 138,0 0,-48 0,-48 76,0 76,0 0,48 0,48 358,0 358,0 0,140.5 0,140.5 -951.5,0 z M 2004,411 l -30,0 0,-13 0,-13 30,0 30,0 0,13 0,13 -30,0 z m 1211,-30 -19,0 0,-15 0,-15 19,0 19,0 0,15 0,15 -19,0 z m -240.5,-3 -98.5,0 0,-13 0,-13 98.5,0 98.5,0 0,13 0,13 -98.5,0 z m -1899,-3 -78.5,0 0,-11 0,-11 78.5,0 78.5,0 0,11 0,11 -78.5,0 z m 820.5,-30 -99,0 0,-13 0,-13 99,0 99,0 0,13 0,13 -99,0 z m 3744.5,-159 -99.5,0 0,-13.5 0,-13.5 99.5,0 99.5,0 0,13.5 0,13.5 -99.5,0 z"
     id="path2995"
     inkscape:connector-curvature="0" />
</svg>
