<?xml version="1.0" encoding="UTF-8" standalone="no"?>
<!-- Created with Inkscape (http://www.inkscape.org/) -->

<svg
   xmlns:dc="http://purl.org/dc/elements/1.1/"
   xmlns:cc="http://creativecommons.org/ns#"
   xmlns:rdf="http://www.w3.org/1999/02/22-rdf-syntax-ns#"
   xmlns:svg="http://www.w3.org/2000/svg"
   xmlns="http://www.w3.org/2000/svg"
   xmlns:xlink="http://www.w3.org/1999/xlink"
   xmlns:sodipodi="http://sodipodi.sourceforge.net/DTD/sodipodi-0.dtd"
   xmlns:inkscape="http://www.inkscape.org/namespaces/inkscape"
   id="svg2985"
   version="1.1"
   inkscape:version="0.48.4 r9939"
   width="6333"
   height="632"
   sodipodi:docname="Water hitregion.bmp">
  <metadata
     id="metadata2991">
    <rdf:RDF>
      <cc:Work
         rdf:about="">
        <dc:format>image/svg+xml</dc:format>
        <dc:type
           rdf:resource="http://purl.org/dc/dcmitype/StillImage" />
        <dc:title></dc:title>
      </cc:Work>
    </rdf:RDF>
  </metadata>
  <defs
     id="defs2989" />
  <sodipodi:namedview
     pagecolor="#ffffff"
     bordercolor="#666666"
     borderopacity="1"
     objecttolerance="10"
     gridtolerance="10"
     guidetolerance="10"
     inkscape:pageopacity="0"
     inkscape:pageshadow="2"
     inkscape:window-width="640"
     inkscape:window-height="480"
     id="namedview2987"
     showgrid="false"
     inkscape:zoom="0.047844623"
     inkscape:cx="3166.5"
     inkscape:cy="316"
     inkscape:window-x="0"
     inkscape:window-y="0"
     inkscape:window-maximized="0"
     inkscape:current-layer="svg2985" />
  <image
     width="6333"
     height="632"
     xlink:href="file:///C:/Users/saartje/Desktop/Digital%20Arts%20&amp;%20Entertainment/Charlie%20the%20Duck/CODE/CharlieTheDuck/resources/Water%20hitregion.bmp"
     id="image2993"
     x="0"
     y="0" />
  <path
     style="fill:#000000"
     d="m 1337,533 -60,0 0,-4 0,-4 60,0 60,0 0,4 0,4 -60,0 z m 1397,0 -100,0 0,-4 0,-4 100,0 100,0 0,4 0,4 -100,0 z m 1396,0 -60,0 0,-4 0,-4 60,0 60,0 0,4 0,4 -60,0 z m 238,0 -58,0 0,-4 0,-4 58,0 58,0 0,4 0,4 -58,0 z"
     id="path2995"
     inkscape:connector-curvature="0" />
</svg>
